<svg width="3669" height="1064" viewBox="0 0 3669 1064" fill="none" xmlns="http://www.w3.org/2000/svg">
<rect width="3668" height="1063.54" transform="translate(0.21875)" fill="white"/>
<path fill-rule="evenodd" clip-rule="evenodd" d="M879.175 594.905L824.283 355.629C819.859 336.729 807.594 321.246 790.101 312.801L568.117 206.233C559.873 202.413 550.423 200 541.375 200C532.327 200 522.876 202.212 514.23 206.233L291.242 312.801C273.547 321.045 261.282 336.528 257.059 355.629L201.765 594.905C197.341 613.806 201.765 633.31 214.03 648.591L368.051 840.212C379.914 855.092 398.011 863.537 416.71 863.537H663.626C682.527 863.537 700.423 855.293 712.286 840.212L866.307 648.591C878.572 633.712 882.996 613.806 878.572 594.905H878.974H879.175ZM491.308 384.182H509.404C514.632 384.182 519.056 379.959 519.056 374.53V289.075C519.056 283.847 523.278 279.423 528.707 279.423H551.831C557.058 279.423 561.482 283.646 561.482 289.075V374.53C561.482 379.758 565.705 384.182 571.133 384.182H589.23C596.67 384.182 601.294 392.225 597.675 398.659L548.613 483.511C544.994 489.945 535.544 489.945 531.924 483.511L482.863 398.659C479.244 392.225 483.868 384.182 491.308 384.182ZM394.19 562.13C388.962 562.13 384.539 566.353 384.539 571.782V589.878C384.539 597.318 376.496 601.942 370.062 598.323L285.209 549.262C278.775 545.642 278.775 536.192 285.209 532.573L370.062 483.511C376.496 479.892 384.539 484.516 384.539 491.956V510.053C384.539 515.28 388.761 519.704 394.19 519.704H479.646C484.874 519.704 489.297 523.926 489.297 529.355V552.479C489.297 557.707 485.075 562.13 479.646 562.13H394.19ZM589.23 697.652H571.334C566.107 697.652 561.683 701.875 561.683 707.304V792.759C561.683 797.987 557.461 802.411 552.032 802.411H528.908C523.681 802.411 519.257 798.188 519.257 792.759V707.304C519.257 702.076 515.034 697.652 509.606 697.652H491.509C484.069 697.652 479.445 689.61 483.064 683.175L532.126 598.323C535.745 591.889 545.195 591.889 548.814 598.323L597.876 683.175C601.495 689.61 596.871 697.652 589.431 697.652H589.23ZM795.328 549.262L710.476 598.323C704.042 601.942 695.999 597.318 695.999 589.878V571.782C695.999 566.554 691.776 562.13 686.348 562.13H600.892C595.664 562.13 591.241 557.908 591.241 552.479V529.355C591.241 524.128 595.463 519.704 600.892 519.704H686.348C691.575 519.704 695.999 515.482 695.999 510.053V491.956C695.999 484.516 704.042 479.892 710.476 483.511L795.328 532.573C801.763 536.192 801.763 545.642 795.328 549.262Z" fill="#002DC9"/>
<path d="M1176.74 508.645L1179.55 505.629C1187.59 496.782 1195.23 488.337 1202.88 479.892L1206.09 476.273C1210.72 471.045 1215.14 465.817 1219.56 460.79C1223.18 456.568 1226.8 452.345 1230.22 448.324C1237.86 439.678 1244.3 432.037 1249.52 425.201H1352.27C1333.37 447.319 1314.27 468.029 1296.17 487.935L1292.35 492.158C1273.05 513.27 1251.33 535.589 1228.21 558.109C1239.87 568.766 1251.94 580.83 1264 595.709C1266.82 599.128 1269.63 602.747 1272.45 606.165C1281.7 617.425 1290.74 628.685 1299.59 640.548C1311.25 656.031 1321.71 671.312 1331.36 686.795C1341.01 702.277 1349.26 716.151 1355.49 729.221H1256.16L1253.75 725.401C1248.12 716.352 1242.08 706.5 1234.85 695.843C1227.2 683.779 1218.36 671.312 1209.71 659.248C1201.07 647.184 1191.41 635.12 1181.76 624.061C1172.11 613.002 1162.06 603.35 1152.81 595.709V729.221H1066.35V294.705L1152.81 280.831V534.785C1160.65 526.541 1168.49 517.895 1176.53 508.846L1176.74 508.645Z" fill="#151927"/>
<path fill-rule="evenodd" clip-rule="evenodd" d="M1586.32 802.009C1611.86 777.88 1624.52 740.883 1624.52 691.219H1624.92V435.857C1617.28 433.445 1608.03 431.032 1598.38 429.021C1588.73 427.01 1578.08 425.201 1567.42 423.793L1564 423.391C1554.15 422.185 1544.5 420.777 1534.64 419.973C1523.58 418.565 1512.93 418.565 1502.27 418.565C1477.74 418.565 1456.02 421.984 1436.72 429.222C1417.42 436.461 1401.53 446.514 1388.06 459.584C1374.59 472.654 1364.94 488.538 1357.7 506.836C1350.46 525.133 1347.04 545.844 1347.04 567.962C1347.04 612.801 1358.71 647.385 1380.82 672.519C1402.94 697.05 1435.31 709.516 1477.34 709.516C1489 709.516 1500.06 708.109 1509.71 706.098C1519.36 703.685 1529.01 700.87 1538.26 696.446V707.505C1538.26 724.395 1533.04 738.269 1522.78 748.926C1512.12 759.985 1494.83 765.213 1470.1 765.213C1451.2 765.213 1434.31 763.202 1419.43 760.387C1404.55 757.572 1390.48 753.149 1377 747.921L1362.12 820.106C1378.01 825.333 1395.5 829.757 1413.8 833.175C1432.1 836.593 1451 838.001 1469.3 838.001C1522.38 838.001 1560.98 825.937 1586.52 801.808L1586.32 802.009ZM1493.02 639.543C1454.01 639.543 1434.71 615.414 1434.71 567.358C1434.71 544.235 1440.54 524.932 1451.6 510.053C1463.26 495.174 1480.15 487.332 1502.67 487.332C1510.31 487.332 1517.15 487.734 1522.98 488.337C1528.81 488.739 1533.64 489.343 1537.86 490.348V628.082C1532.63 631.5 1525.8 633.913 1518.16 636.326C1510.52 638.739 1501.67 639.744 1493.02 639.744V639.543Z" fill="#151927"/>
<path fill-rule="evenodd" clip-rule="evenodd" d="M1789 416.957C1814.54 416.957 1835.85 419.772 1852.74 425.603C1869.63 431.434 1883.1 439.477 1893.76 450.737C1903.81 461.394 1911.05 474.865 1915.47 490.147C1919.9 505.629 1921.71 522.921 1921.71 541.621V720.776C1909.84 723.591 1894.16 726.205 1873.65 729.824L1870.03 730.427C1847.91 734.248 1821.37 735.655 1790 735.655C1770.3 735.655 1752.4 733.645 1736.52 730.427C1720.64 727.21 1706.56 721.178 1695.1 713.537C1683.44 705.897 1674.79 695.24 1668.56 682.774C1662.32 670.307 1659.31 654.422 1659.31 636.125C1659.31 617.827 1662.73 603.35 1669.96 590.884C1677.2 578.417 1686.85 568.766 1698.52 561.527C1710.58 554.289 1724.05 549.061 1739.54 545.643C1755.02 542.224 1770.9 540.817 1787.79 540.817C1798.85 540.817 1809.11 540.817 1817.75 542.224C1826.4 543.23 1833.64 544.637 1839.07 546.045V537.801C1839.07 523.324 1834.64 511.259 1825.59 502.613C1816.95 493.967 1801.47 489.141 1779.35 489.141C1764.87 489.141 1750.39 490.147 1735.92 492.56C1721.44 494.973 1709.37 497.788 1698.72 501.809L1687.66 432.439H1688.46C1693.09 430.831 1699.12 429.021 1706.56 427.614C1714.2 425.603 1722.44 424.195 1731.09 422.788C1739.74 421.38 1749.39 420.375 1759.04 419.37C1768.69 418.364 1778.74 417.962 1789 417.962L1789.4 416.957H1789ZM1795.63 668.9C1804.28 668.9 1812.12 668.9 1819.76 668.497C1827.4 668.095 1833.84 667.492 1838.06 666.487V600.937C1835.65 600.334 1832.23 599.731 1828.01 599.329C1826.4 599.128 1824.59 598.927 1822.58 598.524C1815.74 597.519 1809.11 597.519 1803.28 597.519C1795.03 597.519 1787.39 597.519 1780.55 598.927C1773.32 599.932 1767.08 601.742 1761.65 604.154C1756.43 606.969 1752 610.388 1749.19 615.213C1746.37 620.039 1744.36 625.87 1744.36 632.506C1744.36 645.977 1748.78 655.227 1757.83 660.455C1767.08 665.682 1779.55 668.095 1795.03 668.095L1795.43 668.497L1795.63 668.9Z" fill="#151927"/>
<path d="M2044.16 335.523L1957.7 349.397H1958.1V605.16C1958.1 624.865 1959.51 642.76 1963.33 659.047C1966.75 675.334 1973.38 689.007 1982.63 700.468C1991.88 711.527 2004.35 720.776 2019.83 727.009C2035.31 733.242 2054.62 736.661 2078.14 736.661C2096.44 736.661 2112.32 734.65 2124.99 731.835C2137.46 728.417 2149.12 724.999 2159.78 720.776L2147.71 653.819C2139.47 656.634 2130.42 659.047 2120.77 661.058C2111.12 662.465 2101.46 663.471 2092.22 663.471C2072.91 663.471 2059.84 657.64 2053.61 647.184C2047.38 636.527 2043.96 622.05 2043.96 603.752V496.782H2147.71V425H2043.96V335.322L2044.16 335.523Z" fill="#151927"/>
<path fill-rule="evenodd" clip-rule="evenodd" d="M2159.98 579.423C2159.98 552.479 2164.4 528.753 2172.44 508.645C2180.69 488.337 2191.75 471.648 2205.22 457.975C2218.69 444.504 2234.17 434.45 2252.07 427.211C2269.36 420.375 2287.86 416.555 2306.16 416.555C2349.59 416.555 2383.37 429.624 2408.5 455.965C2433.64 482.506 2446.1 520.911 2446.1 572.586C2446.1 577.412 2446.1 583.243 2445.7 588.873C2445.7 591.889 2445.5 594.704 2445.1 597.519C2444.9 600.133 2444.69 602.345 2444.69 604.758H2248.85C2250.86 622.653 2258.9 636.527 2273.98 647.184C2288.46 657.841 2308.17 662.666 2332.9 662.666C2348.78 662.666 2364.27 661.259 2379.75 658.243C2395.23 655.428 2407.29 652.01 2416.95 647.586L2428.61 717.358C2423.78 719.771 2417.95 722.184 2410.31 724.194C2408.1 724.797 2405.89 725.401 2403.68 725.803C2397.84 727.411 2391.41 729.02 2384.77 730.427C2375.12 732.438 2365.07 733.846 2354.41 734.851C2343.76 735.856 2332.7 736.862 2322.04 736.862C2294.49 736.862 2270.97 733.041 2250.66 724.797C2230.35 716.554 2213.46 705.495 2200.39 691.621C2186.92 677.747 2177.27 660.857 2171.04 641.554C2164.8 622.251 2161.38 601.541 2161.38 579.021L2160.38 579.423H2159.98ZM2362.86 546.648C2362.86 539.409 2361.45 532.171 2359.04 525.535C2357.03 518.699 2353.81 512.466 2349.39 507.238C2344.96 502.01 2339.33 497.586 2332.5 493.766C2325.66 490.348 2317.62 488.538 2307.36 488.538C2297.11 488.538 2289.47 489.946 2282.23 493.364C2275.39 496.782 2269.76 501.005 2264.94 506.434C2260.11 511.661 2256.69 517.895 2254.28 525.133C2251.87 532.372 2249.86 539.61 2249.05 546.849H2362.86V546.648Z" fill="#151927"/>
<path d="M2641.74 641.956C2650.39 613.002 2658.63 584.047 2666.28 554.691C2673.92 584.047 2682.76 613.002 2691.81 641.956C2698.65 663.672 2705.89 685.387 2713.12 707.505C2715.54 714.744 2717.75 721.982 2720.16 729.221H2787.32C2794.56 712.934 2802.2 693.631 2810.44 671.312C2818.69 648.591 2827.33 624.664 2835.98 598.122C2844.22 573.189 2852.47 546.849 2860.91 519.302L2862.52 514.275C2871.77 484.919 2880.42 454.959 2889.06 425.201H2799.38C2796.57 439.075 2793.15 454.155 2789.33 470.442C2787.32 480.093 2785.11 489.946 2782.7 499.798C2781.09 506.836 2779.28 513.873 2777.87 520.911C2774.05 538.203 2769.63 556.098 2764.8 573.39C2762.99 579.624 2761.38 585.857 2759.77 592.09C2756.76 602.948 2753.94 613.605 2750.93 624.061C2746.1 607.171 2741.27 589.878 2736.45 571.983C2731.62 554.088 2727.2 536.795 2722.98 519.503C2719.96 508.042 2717.35 496.782 2714.73 485.723C2713.53 480.495 2712.32 475.066 2710.91 470.04C2709.91 466.219 2709.1 462.198 2708.1 458.579C2705.28 446.916 2702.47 435.857 2700.26 425.402H2637.52C2635.31 435.857 2632.7 447.117 2629.68 458.579C2628.67 462.399 2627.87 466.219 2626.87 470.04C2624.65 479.49 2622.04 489.141 2619.63 498.994C2618.02 505.629 2616.21 512.667 2614.4 519.503C2610.98 532.975 2607.36 546.648 2603.54 560.321C2602.54 564.141 2601.33 568.163 2600.32 571.983C2597.31 583.444 2593.89 594.704 2590.67 605.763C2588.86 611.795 2587.05 617.827 2585.44 623.859C2583.84 617.827 2582.23 611.795 2580.62 605.763C2577.8 595.106 2574.79 584.248 2571.97 573.39C2567.15 555.495 2562.72 538.203 2558.9 520.911C2555.08 503.619 2551.26 486.729 2547.24 470.241C2543.42 453.954 2540 438.874 2537.19 425H2446.5C2451.53 442.493 2456.76 459.986 2462.19 477.479C2465.81 489.745 2469.63 501.809 2473.05 514.074C2481.69 543.23 2490.74 570.777 2499.39 596.916V597.72C2508.43 624.262 2516.68 648.792 2524.72 670.91C2532.96 693.028 2540.61 712.331 2547.44 728.819H2614.6C2624.25 699.462 2633.5 670.508 2642.15 641.554L2641.74 641.956Z" fill="#151927"/>
<path fill-rule="evenodd" clip-rule="evenodd" d="M3018.75 416.957C3044.29 416.957 3065.6 419.772 3082.49 425.603C3099.38 431.434 3112.86 439.477 3123.51 450.737C3133.57 461.394 3140.8 474.865 3145.23 490.147C3149.45 505.629 3151.46 522.921 3151.46 541.621V720.776C3139.6 723.591 3123.71 726.205 3103.2 729.824L3099.79 730.427C3077.67 734.248 3051.13 735.655 3019.76 735.655C3000.05 735.655 2982.16 733.645 2966.07 730.427C2950.19 727.009 2936.11 721.178 2924.65 713.537C2913.19 705.897 2904.34 695.24 2898.11 682.774C2891.88 670.307 2888.86 654.422 2888.86 636.125C2888.86 617.827 2892.28 603.35 2899.52 590.884C2906.76 578.417 2916.41 568.766 2928.07 561.527C2940.13 554.289 2953.61 549.061 2969.09 545.643C2984.57 542.224 3000.46 540.817 3017.35 540.817C3028.41 540.817 3038.66 540.817 3047.31 542.224C3055.95 543.23 3063.19 544.637 3068.62 546.045V537.801C3068.62 523.324 3064.2 511.259 3055.15 502.613C3046.5 493.967 3031.02 489.141 3008.9 489.141C2994.42 489.141 2979.95 490.147 2965.47 492.56C2950.99 494.973 2938.93 497.788 2928.27 501.809L2917.21 432.439H2918.02C2922.64 430.831 2928.67 429.021 2936.11 427.614C2943.75 425.603 2952 424.195 2960.64 422.788C2969.29 421.38 2978.94 420.375 2988.59 419.37C2998.24 418.364 3008.3 417.962 3018.55 417.962L3018.95 416.957H3018.75ZM3025.99 668.9C3034.64 668.9 3042.48 668.9 3050.12 668.497C3057.76 668.095 3064.2 667.492 3068.42 666.487V600.937C3066.01 600.334 3062.59 599.731 3058.36 599.329C3056.76 599.128 3054.95 598.927 3052.94 598.524C3046.1 597.519 3039.46 597.519 3033.63 597.519C3025.39 597.519 3017.75 597.519 3010.91 598.927C3003.67 599.932 2997.44 601.742 2992.01 604.154C2986.78 606.969 2982.36 610.388 2979.54 615.213C2976.73 620.039 2974.72 625.87 2974.72 632.506C2974.72 645.977 2979.14 655.227 2988.19 660.455C2997.44 665.682 3009.91 668.095 3025.39 668.095L3025.79 668.497L3025.99 668.9Z" fill="#151927"/>
<path d="M3468.35 425.603H3380.08C3376.26 440.482 3371.84 456.97 3367.01 474.262C3362.18 491.554 3357.36 509.048 3352.13 527.345C3346.9 545.643 3341.47 562.935 3336.25 579.825C3330.41 596.715 3325.19 612.197 3320.36 626.071C3314.53 612.197 3308.7 596.715 3303.07 579.825C3296.84 562.533 3291 545.039 3285.17 527.345C3280.75 513.672 3276.53 499.999 3272.51 486.528C3271.3 482.506 3270.09 478.485 3268.89 474.463C3263.66 457.171 3259.24 440.683 3255.42 425.804H3163.73C3181.02 485.522 3199.92 539.409 3219.22 587.264C3238.53 634.918 3258.23 678.35 3278.14 716.755C3272.31 731.232 3265.07 742.693 3256.82 750.937C3248.58 759.181 3236.51 763.403 3221.03 763.403C3213.39 763.403 3205.55 762.398 3198.71 761.393C3192.08 760.387 3183.83 757.974 3174.99 755.159L3160.11 824.127C3167.35 826.942 3176.6 829.958 3188.06 832.371C3199.72 834.784 3212.18 836.191 3225.66 836.191C3241.54 836.191 3256.02 834.784 3268.08 830.963C3280.15 827.143 3291.21 821.312 3300.86 813.671C3310.51 806.03 3319.15 795.776 3327.4 783.712C3335.04 771.647 3343.28 756.768 3351.53 739.476C3374.25 691.219 3394.96 641.152 3413.86 590.079C3432.56 539.208 3450.86 484.316 3468.35 425.804V425.603Z" fill="#151927"/>
</svg>
