<?xml version="1.0" encoding="UTF-8"?>
<svg xmlns="http://www.w3.org/2000/svg" version="1.1" viewBox="0 0 195 195" width="86" height="86">>
  <defs>
    <style>
      .st0 {
        fill: none;
        stroke: #5044e9;
        stroke-linecap: round;
        stroke-width: 12px;
      }
    </style>
  </defs>
  <path class="st0" d="M25,97.9L92.9,30c9.4-9.4,24.6-9.4,33.9,0h0c9.4,9.4,9.4,24.6,0,33.9l-51.3,51.3"/>
  <path class="st0" d="M76.3,114.5l50.6-50.6c9.4-9.4,24.6-9.4,33.9,0l.4.4c9.4,9.4,9.4,24.6,0,33.9l-61.4,61.4c-3.1,3.1-3.1,8.2,0,11.3l12.6,12.6"/>
  <path class="st0" d="M109.9,46.9l-50.2,50.2c-9.4,9.4-9.4,24.6,0,33.9h0c9.4,9.4,24.6,9.4,33.9,0l50.2-50.2"/>
</svg>