<svg width="66" height="86" viewBox="0 0 263 342" fill="none" xmlns="http://www.w3.org/2000/svg">
<g clip-path="url(#clip0_15757_3165)">
<path d="M260.194 148.278L257.774 143.708C251.834 132.488 250.594 119.678 252.414 107.108C252.484 106.618 252.484 106.128 252.484 105.648C252.484 69.6478 232.034 38.4378 202.114 22.9778L202.044 23.0078C191.624 17.9178 179.114 14.3278 164.094 13.1078C78.9136 6.18778 30.5636 81.2978 28.8136 137.948C27.0936 194.578 49.5436 241.378 93.2736 273.168C93.2736 273.168 73.4436 308.498 98.6036 339.338C103.354 345.148 112.634 340.708 111.244 333.318C108.824 320.558 109.074 305.558 119.774 296.838C129.814 288.678 146.324 291.398 161.014 296.568C169.504 299.568 175.914 288.488 169.104 282.568C139.434 256.748 105.394 261.018 105.394 261.018H105.364C88.2536 224.008 102.704 196.028 121.354 177.338C140.424 158.218 168.274 150.758 194.534 157.078C201.264 158.698 207.794 161.088 213.974 164.208C215.524 164.988 217.064 165.758 218.644 166.468L232.084 172.438C234.274 173.598 236.534 174.568 238.854 175.358C254.954 180.808 268.974 162.828 260.194 148.278Z" fill="#5044E9"/>
<path d="M19.8634 29.9473L47.8534 55.6873C48.4634 56.2473 48.5634 57.1573 48.0934 57.8373C44.2134 63.4573 40.6034 69.8273 37.6634 76.9473C37.1234 78.2573 35.3034 78.3273 34.6734 77.0473C31.3234 70.1973 23.5334 53.2173 17.1934 31.6273C16.7234 30.0273 18.6534 28.8173 19.8834 29.9473H19.8734H19.8634Z" fill="#5044E9"/>
<path d="M54.3441 49.6275C64.5541 37.4575 75.2541 29.8375 80.5241 26.4775C81.7941 25.6775 81.5341 23.7675 80.0941 23.3375L3.21409 0.0774523C1.45409 -0.462548 0.19409 1.76745 1.54409 3.01745L51.8541 49.7975C52.5841 50.4874 53.7341 50.3975 54.3741 49.6275H54.3641H54.3441Z" fill="#5044E9"/>
<path d="M190.124 113.108C196.014 113.108 200.784 108.318 200.784 102.408C200.784 96.4975 196.014 91.7075 190.124 91.7075C184.234 91.7075 179.464 96.4975 179.464 102.408C179.464 108.318 184.234 113.108 190.124 113.108Z" fill="white"/>
<path d="M100.344 150.978C104.904 146.778 117.414 136.078 133.604 128.548C135.954 127.448 135.384 123.968 132.804 123.708C116.784 122.128 84.2836 121.868 67.0836 142.318C65.7036 143.958 66.9136 146.468 69.0636 146.458C76.9836 146.398 91.7936 146.898 96.9936 151.008C98.0036 151.808 99.3936 151.818 100.334 150.968L100.344 150.978Z" fill="white"/>
</g>
<defs>
<clipPath id="clip0_15757_3165">
<rect width="261.92" height="342.01" fill="white" transform="translate(0.973633 -0.00244141)"/>
</clipPath>
</defs>
</svg>
